<svg width="200" height="200" viewBox="0 0 200 200" fill="none" xmlns="http://www.w3.org/2000/svg">
  <!-- Bee 1: Worker (Broom) - Matching reference style -->
  
  <!-- Wings (sage green, teardrop shape) -->
  <ellipse cx="95" cy="55" rx="22" ry="30" fill="#A8B89A" stroke="#4A5A4A" stroke-width="2" transform="rotate(-20 95 55)"/>
  <ellipse cx="115" cy="50" rx="18" ry="25" fill="#A8B89A" stroke="#4A5A4A" stroke-width="2" transform="rotate(10 115 50)"/>
  
  <!-- Antenna -->
  <path d="M115 70C115 70 120 55 115 45" stroke="#4A5A4A" stroke-width="3" stroke-linecap="round"/>
  <circle cx="115" cy="45" r="4" fill="#4A5A4A"/>
  
  <!-- Body (rounded, tilted) -->
  <ellipse cx="100" cy="110" rx="50" ry="42" fill="#F5CE6B" stroke="#4A5A4A" stroke-width="3" transform="rotate(-15 100 110)"/>
  
  <!-- Stripes (dark, vertical) -->
  <path d="M85 75C82 95 82 125 85 145" stroke="#4A5A4A" stroke-width="10" stroke-linecap="round"/>
  <path d="M110 72C107 92 107 122 110 142" stroke="#4A5A4A" stroke-width="10" stroke-linecap="round"/>
  
  <!-- Stinger -->
  <path d="M55 130L40 135L55 140" fill="#4A5A4A"/>
  
  <!-- Face -->
  <circle cx="130" cy="95" r="4" fill="#4A5A4A"/> <!-- Eye 1 -->
  <circle cx="145" cy="100" r="4" fill="#4A5A4A"/> <!-- Eye 2 -->
  <path d="M135 112C138 116 143 116 146 112" stroke="#4A5A4A" stroke-width="3" stroke-linecap="round" fill="none"/> <!-- Smile -->
  
  <!-- Accessory: Broom -->
  <line x1="90" y1="145" x2="65" y2="180" stroke="#8B5A2B" stroke-width="5" stroke-linecap="round"/>
  <rect x="55" y="175" width="25" height="20" rx="3" fill="#D4A574" stroke="#8B5A2B" stroke-width="2"/>
  <line x1="60" y1="180" x2="58" y2="195" stroke="#8B5A2B" stroke-width="1.5"/>
  <line x1="67" y1="180" x2="67" y2="195" stroke="#8B5A2B" stroke-width="1.5"/>
  <line x1="74" y1="180" x2="76" y2="195" stroke="#8B5A2B" stroke-width="1.5"/>
</svg>
