<svg width="200" height="200" viewBox="0 0 200 200" fill="none" xmlns="http://www.w3.org/2000/svg">
  <!-- Bee 5: Smart (Glasses) - Matching reference style -->
  
  <!-- Wings (sage green, teardrop shape) -->
  <ellipse cx="95" cy="55" rx="22" ry="30" fill="#A8B89A" stroke="#4A5A4A" stroke-width="2" transform="rotate(-20 95 55)"/>
  <ellipse cx="115" cy="50" rx="18" ry="25" fill="#A8B89A" stroke="#4A5A4A" stroke-width="2" transform="rotate(10 115 50)"/>
  
  <!-- Antenna -->
  <path d="M115 70C115 70 120 55 115 45" stroke="#4A5A4A" stroke-width="3" stroke-linecap="round"/>
  <circle cx="115" cy="45" r="4" fill="#4A5A4A"/>
  
  <!-- Body (rounded, tilted) -->
  <ellipse cx="100" cy="110" rx="50" ry="42" fill="#F5CE6B" stroke="#4A5A4A" stroke-width="3" transform="rotate(-15 100 110)"/>
  
  <!-- Stripes (dark, vertical) -->
  <path d="M85 75C82 95 82 125 85 145" stroke="#4A5A4A" stroke-width="10" stroke-linecap="round"/>
  <path d="M110 72C107 92 107 122 110 142" stroke="#4A5A4A" stroke-width="10" stroke-linecap="round"/>
  
  <!-- Stinger -->
  <path d="M55 130L40 135L55 140" fill="#4A5A4A"/>
  
  <!-- Accessory: Glasses (over face) -->
  <circle cx="128" cy="95" r="10" fill="none" stroke="#4A5A4A" stroke-width="3"/>
  <circle cx="148" cy="98" r="10" fill="none" stroke="#4A5A4A" stroke-width="3"/>
  <line x1="138" y1="96" x2="138" y2="97" stroke="#4A5A4A" stroke-width="3"/>
  
  <!-- Eyes (behind glasses) -->
  <circle cx="128" cy="95" r="3" fill="#4A5A4A"/>
  <circle cx="148" cy="98" r="3" fill="#4A5A4A"/>
  
  <!-- Smile -->
  <path d="M135 112C138 116 143 116 146 112" stroke="#4A5A4A" stroke-width="3" stroke-linecap="round" fill="none"/>
</svg>
